<?xml version="1.0" encoding="UTF-8"?>
<svg xmlns="http://www.w3.org/2000/svg" xmlns:xlink="http://www.w3.org/1999/xlink" viewBox="0 0 16 16" width="16px" height="16px">
<g id="surface29488046">
<path style=" stroke:none;fill-rule:nonzero;fill:rgb(100%,100%,100%);fill-opacity:1;" d="M 9.679688 8 C 9.671875 7.890625 9.667969 7.78125 9.667969 7.667969 C 9.667969 5.640625 10.621094 4.332031 12 4.332031 C 13.136719 4.332031 14.109375 5.21875 14.332031 6.667969 L 15 6.667969 L 15 3.667969 L 14.332031 3.667969 C 14.332031 3.667969 14.15625 4.167969 14 4.054688 C 13.367188 3.699219 12.757812 3.675781 11.992188 3.675781 C 10.058594 3.675781 8.332031 5.421875 8.332031 7.640625 C 8.332031 7.761719 8.339844 7.882812 8.351562 8 L 7.648438 8 C 7.660156 7.882812 7.667969 7.761719 7.667969 7.640625 C 7.667969 5.421875 5.941406 3.675781 4.007812 3.675781 C 3.242188 3.675781 2.632812 3.699219 2 4.054688 C 1.84375 4.167969 1.667969 3.667969 1.667969 3.667969 L 1 3.667969 L 1 6.667969 L 1.667969 6.667969 C 1.890625 5.21875 2.863281 4.332031 4 4.332031 C 5.378906 4.332031 6.332031 5.640625 6.332031 7.667969 C 6.332031 7.78125 6.328125 7.890625 6.320312 8 L 0 8 L 0 8.667969 L 0.335938 8.667969 C 0.699219 8.667969 0.996094 8.953125 1.003906 9.3125 C 1.015625 9.929688 1.074219 10.667969 1.332031 11 C 1.757812 11.542969 2.332031 12 4 12 C 5.675781 12 7.308594 10.492188 7.667969 8.667969 L 8.332031 8.667969 C 8.691406 10.492188 10.324219 12 12 12 C 13.667969 12 14.242188 11.542969 14.667969 11 C 14.925781 10.667969 14.984375 9.929688 14.996094 9.3125 C 15.003906 8.953125 15.304688 8.667969 15.664062 8.667969 L 16 8.667969 L 16 8 Z M 3.824219 11.242188 C 3.289062 11.242188 2.441406 11.242188 2.332031 10.667969 C 2.296875 10.472656 2.304688 9.824219 2.3125 9.316406 C 2.324219 8.957031 2.617188 8.667969 2.980469 8.667969 L 6.332031 8.667969 C 6.070312 10.261719 5.003906 11.242188 3.824219 11.242188 Z M 13.667969 10.667969 C 13.558594 11.242188 12.710938 11.242188 12.175781 11.242188 C 10.996094 11.242188 9.929688 10.261719 9.667969 8.667969 L 13.019531 8.667969 C 13.382812 8.667969 13.675781 8.957031 13.6875 9.316406 C 13.695312 9.824219 13.703125 10.472656 13.667969 10.667969 Z M 13.667969 10.667969 "/>
</g>
</svg>
